<svg width="170" height="170" viewBox="0 0 170 170" fill="none" xmlns="http://www.w3.org/2000/svg">
<path d="M26.5625 111.562H37.1875V79.6875H26.5625C23.63 79.6875 21.25 82.0675 21.25 85V106.25C21.25 109.183 23.63 111.562 26.5625 111.562Z" fill="white"/>
<path d="M148.75 106.25V85C148.75 82.0675 146.37 79.6875 143.438 79.6875H132.812V111.562H143.438C146.37 111.562 148.75 109.183 148.75 106.25Z" fill="white"/>
<path d="M26.5625 122.188H37.1875V135.469C37.1875 144.256 44.3381 151.406 53.125 151.406H72.845C74.8956 156.092 79.5653 159.375 85 159.375C92.3259 159.375 98.2812 153.42 98.2812 146.094C98.2812 138.768 92.3259 132.812 85 132.812C79.5653 132.812 74.8956 136.096 72.845 140.781H53.125C50.1925 140.781 47.8125 138.401 47.8125 135.469V58.4375C47.8125 37.9366 64.4991 21.25 85 21.25C105.501 21.25 122.188 37.9366 122.188 58.4375V122.188C122.188 125.125 124.562 127.5 127.5 127.5C130.438 127.5 132.812 125.125 132.812 122.188H143.438C152.224 122.188 159.375 115.037 159.375 106.25V85C159.375 76.2131 152.224 69.0625 143.438 69.0625H132.812V58.4375C132.812 32.0716 111.366 10.625 85 10.625C58.6341 10.625 37.1875 32.0716 37.1875 58.4375V69.0625H26.5625C17.7756 69.0625 10.625 76.2131 10.625 85V106.25C10.625 115.037 17.7756 122.188 26.5625 122.188ZM132.812 79.6875H143.438C146.37 79.6875 148.75 82.0675 148.75 85V106.25C148.75 109.183 146.37 111.562 143.438 111.562H132.812V79.6875ZM21.25 85C21.25 82.0675 23.63 79.6875 26.5625 79.6875H37.1875V111.562H26.5625C23.63 111.562 21.25 109.183 21.25 106.25V85Z" fill="#52962A"/>
</svg>
