<svg width="840" height="194" viewBox="0 0 840 194" fill="none" xmlns="http://www.w3.org/2000/svg">
<path d="M840 144V50C840 22.3858 817.614 0 790 0H193.77C175.948 0 161.5 14.4477 161.5 32.2698C161.5 50.092 147.052 64.5397 129.23 64.5397H50C22.3858 64.5397 0 86.9255 0 114.54V144C0 171.614 22.3858 194 50 194H790C817.614 194 840 171.614 840 144Z" fill="#252525"/>
<path d="M840 144V50C840 22.3858 817.614 0 790 0H193.77C175.948 0 161.5 14.4477 161.5 32.2698C161.5 50.092 147.052 64.5397 129.23 64.5397H50C22.3858 64.5397 0 86.9255 0 114.54V144C0 171.614 22.3858 194 50 194H790C817.614 194 840 171.614 840 144Z" fill="url(#paint0_linear_2053_446)" fill-opacity="0.2"/>
<defs>
<linearGradient id="paint0_linear_2053_446" x1="420" y1="0" x2="420" y2="194" gradientUnits="userSpaceOnUse">
<stop stop-color="#183307" stop-opacity="0.19"/>
<stop offset="1"/>
</linearGradient>
</defs>
</svg>
