<svg width="24" height="41" viewBox="0 0 24 41" fill="none" xmlns="http://www.w3.org/2000/svg">
<path fill-rule="evenodd" clip-rule="evenodd" d="M0 12C0 5.38313 5.38313 0 12 0C18.6169 0 24 5.38313 24 12V28.7964C24 35.4133 18.6169 40.7964 12 40.7964C5.38313 40.7964 0 35.4133 0 28.7964V12ZM12 38.3487C17.2671 38.3487 21.5523 34.0634 21.5523 28.7964V12C21.5523 6.733 17.267 2.4477 12 2.4477C6.733 2.4477 2.4477 6.733 2.4477 12V28.7964C2.4477 34.0634 6.733 38.3487 12 38.3487ZM10.7765 9.3394C10.7765 8.66339 11.3243 8.11559 12.0003 8.11559C12.6764 8.11559 13.2242 8.66339 13.2242 9.3394V14.9724C13.2242 15.6481 12.676 16.1963 12.0004 16.1963C11.3243 16.1963 10.7765 15.6481 10.7765 14.9724V9.3394Z" fill="#5BA72F"/>
</svg>
